<svg width="1438" height="55" viewBox="0 0 1438 55" fill="none" xmlns="http://www.w3.org/2000/svg">
    <rect x="1067" y="9" width="80" height="36" rx="10" fill="#20417B"/>
    <path d="M1084.86 24.273a2.116 2.116 0 0 0-.85-1.546c-.51-.382-1.15-.574-1.92-.574-.54 0-1.02.093-1.43.279-.41.185-.73.443-.97.773a1.88 1.88 0 0 0-.34 1.113c0 .307.06.576.2.807.13.231.31.43.53.597.23.162.48.303.75.42.28.117.55.216.83.296l1.23.352c.37.102.74.233 1.12.392.37.159.71.36 1.01.602.31.239.56.532.75.88.19.345.28.76.28 1.245 0 .621-.16 1.18-.48 1.676-.32.496-.79.89-1.39 1.182-.6.288-1.32.432-2.16.432-.79 0-1.48-.13-2.07-.392-.58-.265-1.04-.63-1.37-1.097a3.095 3.095 0 0 1-.56-1.62h1.09c.04.46.19.848.45 1.166.27.318.61.56 1.04.727.42.163.89.244 1.42.244.58 0 1.09-.096 1.54-.29.46-.197.81-.47 1.07-.818.26-.352.39-.761.39-1.227 0-.394-.1-.723-.3-.989a2.41 2.41 0 0 0-.86-.676 7.887 7.887 0 0 0-1.27-.483l-1.39-.409c-.91-.273-1.62-.65-2.13-1.13-.5-.481-.75-1.095-.75-1.841 0-.625.16-1.175.5-1.648a3.38 3.38 0 0 1 1.36-1.114c.58-.269 1.22-.403 1.94-.403s1.36.132 1.92.398c.56.265 1 .63 1.32 1.096.33.462.51.989.53 1.58h-1.03zm3.55 8.727v-8.727h1.02V33h-1.02zm.52-10.227c-.21 0-.39-.07-.54-.21a.687.687 0 0 1-.22-.517c0-.201.07-.372.22-.512a.752.752 0 0 1 .54-.216c.2 0 .38.072.53.216.15.14.22.31.22.512 0 .2-.07.373-.22.517-.15.14-.33.21-.53.21zm6.5 13.682c-.59 0-1.12-.078-1.56-.233-.45-.152-.83-.36-1.13-.625a2.959 2.959 0 0 1-.72-.892l.83-.546c.13.22.29.436.5.648.21.212.49.388.82.528.35.14.76.21 1.26.21.77 0 1.4-.193 1.87-.58.48-.386.72-.986.72-1.8v-1.966h-.1c-.11.265-.28.53-.5.795-.22.262-.51.48-.86.654-.36.174-.79.261-1.32.261a3.43 3.43 0 0 1-1.86-.517c-.53-.345-.96-.837-1.27-1.477-.3-.644-.46-1.411-.46-2.301 0-.883.15-1.66.45-2.33.3-.67.73-1.193 1.27-1.568s1.17-.563 1.89-.563c.53 0 .98.095 1.33.285.35.185.63.416.85.693.21.276.38.545.5.806h.1v-1.664h.99v8.954c0 .739-.15 1.347-.47 1.824-.31.477-.74.83-1.28 1.057-.54.231-1.16.347-1.85.347zm-.07-4.472c.56 0 1.04-.134 1.44-.404.4-.272.7-.662.91-1.17.22-.508.32-1.112.32-1.812 0-.682-.1-1.286-.31-1.813-.21-.53-.51-.947-.91-1.25-.39-.307-.88-.46-1.45-.46-.58 0-1.07.157-1.48.471-.4.315-.7.74-.9 1.273-.21.53-.31 1.123-.31 1.779 0 .666.1 1.255.31 1.767.21.507.51.905.92 1.193.4.284.89.426 1.46.426zm7.36-4.438V33h-1.01v-8.727h.98v1.369h.09a2.5 2.5 0 0 1 .96-1.074c.43-.273.97-.409 1.61-.409.59 0 1.1.123 1.55.37.44.242.79.6 1.04 1.073.25.474.37 1.055.37 1.745V33h-1.01v-5.59c0-.717-.2-1.283-.6-1.7-.4-.416-.93-.625-1.6-.625-.46 0-.87.099-1.22.296a2.15 2.15 0 0 0-.85.852c-.21.367-.31.805-.31 1.313zm20.72-6.181h1.06v7.704c0 .792-.18 1.5-.55 2.125a3.985 3.985 0 0 1-1.55 1.472c-.66.356-1.43.534-2.3.534-.88 0-1.64-.18-2.31-.54-.66-.36-1.18-.85-1.55-1.471-.37-.622-.55-1.328-.55-2.12v-7.704h1.06v7.63c0 .618.14 1.169.41 1.654.28.48.67.86 1.17 1.136.5.277 1.09.415 1.77.415.67 0 1.26-.138 1.76-.415.51-.276.89-.655 1.17-1.136.27-.485.41-1.036.41-1.654v-7.63zm3.94 14.909v-12h.99v1.665h.11c.13-.262.29-.529.5-.802.22-.276.5-.51.85-.698.35-.19.79-.285 1.32-.285.72 0 1.35.19 1.89.569.54.375.96.901 1.26 1.58.31.673.46 1.46.46 2.357 0 .902-.15 1.691-.46 2.37-.3.677-.72 1.206-1.26 1.585-.54.378-1.16.568-1.87.568-.53 0-.97-.095-1.33-.284-.35-.19-.64-.423-.86-.7-.21-.28-.38-.552-.5-.817h-.09v4.892h-1.01zm1-7.631c0 .705.11 1.33.31 1.875.22.542.52.968.91 1.279.4.306.88.46 1.45.46.58 0 1.07-.16 1.46-.478.4-.322.71-.755.92-1.3.21-.546.32-1.158.32-1.836 0-.67-.11-1.275-.32-1.813-.2-.537-.5-.963-.91-1.278-.4-.318-.89-.477-1.47-.477-.57 0-1.05.153-1.45.46-.4.303-.7.724-.91 1.262-.21.534-.31 1.15-.31 1.846z" fill="#fff"/>
    <rect x="1160" y="9" width="80" height="36" rx="10" fill="#fff"/>
    <rect x="1160.5" y="9.5" width="79" height="35" rx="9.5" stroke="#666" stroke-opacity=".5"/>
    <path d="M1178.55 33V21.364h1.06v10.681h5.54V33h-6.6zm12.18.182c-.76 0-1.42-.192-2-.574-.58-.383-1.03-.911-1.35-1.585-.33-.678-.49-1.46-.49-2.347 0-.894.16-1.68.49-2.358.32-.682.77-1.212 1.35-1.59.58-.383 1.24-.575 2-.575.75 0 1.42.192 1.99.574.58.383 1.03.913 1.35 1.591.33.678.5 1.464.5 2.358 0 .887-.16 1.669-.49 2.347-.33.674-.78 1.202-1.36 1.585-.57.383-1.24.574-1.99.574zm0-.926c.6 0 1.12-.163 1.54-.489.42-.326.74-.76.95-1.301.22-.542.33-1.138.33-1.79 0-.651-.11-1.25-.33-1.795a3.003 3.003 0 0 0-.95-1.313c-.42-.33-.94-.494-1.54-.494-.6 0-1.12.165-1.54.494-.42.33-.74.767-.96 1.313a4.757 4.757 0 0 0-.33 1.795c0 .652.11 1.248.33 1.79.22.542.54.975.96 1.301.42.326.93.489 1.54.489zm9.39 4.199c-.6 0-1.12-.078-1.56-.233-.45-.152-.83-.36-1.14-.625a3.08 3.08 0 0 1-.71-.892l.83-.546c.12.22.29.436.5.648.21.212.49.388.82.528.34.14.76.21 1.26.21.77 0 1.39-.193 1.87-.58.47-.386.71-.986.71-1.8v-1.966h-.09c-.12.265-.28.53-.5.795-.22.262-.51.48-.87.654-.35.174-.79.261-1.31.261-.7 0-1.32-.172-1.86-.517-.54-.345-.96-.837-1.27-1.477-.31-.644-.46-1.411-.46-2.301 0-.883.15-1.66.45-2.33.3-.67.72-1.193 1.27-1.568.54-.375 1.17-.563 1.89-.563.53 0 .97.095 1.33.285.35.185.63.416.84.693.22.276.39.545.51.806h.1v-1.664h.99v8.954c0 .739-.16 1.347-.47 1.824-.32.477-.74.83-1.29 1.057-.54.231-1.15.347-1.84.347zm-.07-4.472c.56 0 1.04-.134 1.44-.404.39-.272.7-.662.91-1.17.21-.508.32-1.112.32-1.812 0-.682-.1-1.286-.31-1.813-.21-.53-.51-.947-.91-1.25-.4-.307-.88-.46-1.45-.46-.58 0-1.08.157-1.48.471-.4.315-.7.74-.91 1.273-.2.53-.3 1.123-.3 1.779 0 .666.1 1.255.31 1.767.21.507.51.905.91 1.193.41.284.89.426 1.47.426zm12.12-10.62V33h-1.06V21.364h1.06zm3.9 6.183V33h-1.02v-8.727h.99v1.369h.09c.2-.447.52-.805.95-1.074.44-.273.98-.409 1.62-.409.58 0 1.1.123 1.54.37.45.242.8.6 1.04 1.073.25.474.38 1.055.38 1.745V33h-1.02v-5.59c0-.717-.2-1.283-.6-1.7-.4-.416-.93-.625-1.6-.625-.46 0-.87.099-1.22.296a2.15 2.15 0 0 0-.85.852c-.2.367-.3.805-.3 1.313z" fill="#000"/>
    <rect x="1253" y="9" width="88" height="36" rx="10" fill="#fff"/>
    <path d="M1269.5 17.435c-1.99 0-3.94.59-5.59 1.696a10.027 10.027 0 0 0-3.71 4.517c-.76 1.839-.96 3.863-.57 5.816a10.055 10.055 0 0 0 7.91 7.909c1.95.389 3.97.19 5.81-.573a10.089 10.089 0 0 0 4.52-3.707c1.1-1.655 1.7-3.601 1.7-5.592a10.102 10.102 0 0 0-2.96-7.114 10.055 10.055 0 0 0-7.11-2.952zm-9.38 10.066a9.39 9.39 0 0 1 9.38-9.38v18.758a9.387 9.387 0 0 1-9.38-9.378zM1283.84 22.318v-.954h8.44v.954h-3.69V33h-1.06V22.318h-3.69zm11.63 5.227V33h-1.01V21.364h1.01v4.278h.09c.21-.45.52-.81.95-1.08.43-.268.98-.403 1.64-.403.59 0 1.11.121 1.55.364.45.242.8.6 1.05 1.074.25.473.37 1.056.37 1.75V33h-1.01v-5.59c0-.72-.2-1.287-.6-1.7-.4-.416-.94-.625-1.62-.625-.46 0-.88.099-1.24.296-.37.197-.65.48-.87.852-.2.367-.31.805-.31 1.313zm11.85 5.637c-.82 0-1.52-.19-2.12-.568a3.87 3.87 0 0 1-1.38-1.586c-.32-.678-.48-1.458-.48-2.34 0-.88.16-1.66.48-2.341.33-.686.78-1.222 1.35-1.608.57-.39 1.24-.586 1.99-.586.48 0 .93.088 1.37.262.44.17.84.434 1.18.79.36.352.64.797.84 1.335.2.534.31 1.166.31 1.898v.5h-6.82v-.892h5.78c0-.561-.11-1.065-.34-1.512a2.57 2.57 0 0 0-.94-1.068c-.39-.262-.85-.392-1.38-.392-.55 0-1.04.148-1.46.443-.42.296-.75.686-.99 1.17a3.667 3.667 0 0 0-.35 1.591v.535c0 .693.12 1.299.35 1.818.25.515.59.915 1.03 1.198.45.285.97.427 1.58.427.41 0 .77-.065 1.08-.194.32-.128.58-.3.79-.516.22-.22.38-.46.49-.722l.96.312c-.13.368-.35.707-.65 1.017-.3.311-.68.561-1.13.75-.44.186-.96.279-1.54.279zm5.77-.182v-8.727h.98v1.34h.09c.17-.45.46-.804.87-1.062.41-.261.9-.392 1.47-.392.6 0 1.1.142 1.48.426.39.28.68.667.88 1.16h.07c.2-.486.52-.87.96-1.154.45-.288.99-.432 1.63-.432.81 0 1.45.256 1.92.767.47.508.7 1.25.7 2.227V33h-1.01v-5.847c0-.689-.18-1.206-.53-1.55-.35-.345-.81-.518-1.39-.518-.67 0-1.18.205-1.54.614-.36.409-.54.928-.54 1.557V33h-1.03v-5.938c0-.59-.17-1.068-.5-1.431-.33-.364-.79-.546-1.39-.546-.4 0-.76.099-1.09.296a2.1 2.1 0 0 0-.75.823c-.18.349-.27.75-.27 1.205V33h-1.01zm17.26.182c-.82 0-1.52-.19-2.12-.568a3.87 3.87 0 0 1-1.38-1.586c-.32-.678-.48-1.458-.48-2.34 0-.88.16-1.66.48-2.341.33-.686.78-1.222 1.35-1.608.58-.39 1.24-.586 1.99-.586.48 0 .93.088 1.37.262.44.17.84.434 1.19.79.35.352.63.797.83 1.335.21.534.31 1.166.31 1.898v.5h-6.82v-.892h5.78c0-.561-.11-1.065-.34-1.512-.22-.45-.53-.807-.93-1.068-.4-.262-.86-.392-1.39-.392-.55 0-1.04.148-1.46.443-.42.296-.75.686-.98 1.17a3.536 3.536 0 0 0-.36 1.591v.535c0 .693.12 1.299.36 1.818.24.515.58.915 1.02 1.198.45.285.97.427 1.58.427.41 0 .77-.065 1.08-.194.32-.128.58-.3.79-.516.22-.22.38-.46.49-.722l.96.312c-.13.368-.35.707-.65 1.017-.3.311-.68.561-1.13.75-.44.186-.96.279-1.54.279z" fill="#000"/>
    <g clip-path="url(#3vke1o08wa)" fill="#000">
        <path d="M121.708 14.474h17.28v1.367h-15.696v10.287h14.76v1.367h-14.76v11.294h15.876v1.367h-17.46V14.474zm18.828 0h1.836l8.137 11.294 8.316-11.294L170.136.127l-18.583 26.828 9.576 13.201h-1.908l-8.712-12.014-8.749 12.014h-1.872l9.649-13.2-9.001-12.482zm21.277 1.367v-1.367h19.692v1.367h-9.072v24.315h-1.584V15.841h-9.036zM100.09 14.474h1.98l27.303 40.66-11.283-14.978-16.344-23.74-.072 23.74h-1.584V14.474zM181.345 38.377c.328 0 .567-.25.567-.572a.556.556 0 0 0-.567-.572.558.558 0 0 0-.566.572c0 .322.243.572.566.572zm1.557-1.505c0 .952.689 1.574 1.695 1.574 1.071 0 1.718-.641 1.718-1.754v-3.92h-.863v3.916c0 .618-.312.948-.863.948-.493 0-.828-.307-.84-.764h-.847zm4.542-.05c.062.99.89 1.624 2.123 1.624 1.318 0 2.142-.664 2.142-1.724 0-.833-.47-1.294-1.61-1.558l-.613-.15c-.724-.169-1.017-.396-1.017-.791 0-.5.455-.825 1.136-.825.648 0 1.095.318 1.176.829h.839c-.05-.933-.874-1.59-2.003-1.59-1.214 0-2.023.657-2.023 1.644 0 .813.459 1.297 1.464 1.532l.717.172c.736.173 1.059.426 1.059.849 0 .491-.508.848-1.202.848-.743 0-1.259-.334-1.333-.86h-.855z"/>
    </g>
    <defs>
        <clipPath id="3vke1o08wa">
            <path fill="#fff" transform="translate(100)" d="M0 0h91.814v55H0z"/>
        </clipPath>
    </defs>
</svg>
